<?xml version="1.0" encoding="utf-8"?>
<!-- Generator: Adobe Illustrator 16.0.4, SVG Export Plug-In . SVG Version: 6.00 Build 0)  -->
<!DOCTYPE svg PUBLIC "-//W3C//DTD SVG 1.1//EN" "http://www.w3.org/Graphics/SVG/1.1/DTD/svg11.dtd">
<svg version="1.1" id="Layer_1" xmlns="http://www.w3.org/2000/svg" xmlns:xlink="http://www.w3.org/1999/xlink" x="0px" y="0px"
	 width="487.5px" height="600px" viewBox="56.25 100 487.5 600" enable-background="new 56.25 100 487.5 600" xml:space="preserve">
<g>
	<g>
		<path fill="#9B9B9B" d="M506.25,175H403.125v-28.125c0-26.25-20.625-46.875-46.875-46.875h-112.5
			c-26.25,0-46.875,20.625-46.875,46.875V175H93.75c-20.625,0-37.5,16.875-37.5,37.5v75h38.438l24.375,360
			c1.875,29.062,26.25,52.5,56.25,52.5H423.75c29.062,0,54.375-23.438,56.25-52.5l25.312-360h38.438v-75
			C543.75,191.875,526.875,175,506.25,175z M196.875,588.438l-18.75-243.75l37.5-1.875l18.75,243.75L196.875,588.438z M318.75,587.5
			h-37.5V343.75h37.5V587.5z M346.875,175h-93.75v-18.75h93.75V175z M403.125,588.438l-37.5-1.875l18.75-243.75l37.5,1.875
			L403.125,588.438z"/>
	</g>
</g>
</svg>
